<?xml version="1.0" standalone="no"?>
<!DOCTYPE svg PUBLIC "-//W3C//DTD SVG 20010904//EN"
 "http://www.w3.org/TR/2001/REC-SVG-20010904/DTD/svg10.dtd">
<svg version="1.0" xmlns="http://www.w3.org/2000/svg"
 width="300.000000pt" height="300.000000pt" viewBox="0 0 300.000000 300.000000"
 preserveAspectRatio="xMidYMid meet">
<metadata>
Created by potrace 1.11, written by Peter Selinger 2001-2013
</metadata>
<g transform="translate(0.000000,300.000000) scale(0.100000,-0.100000)"
fill="#000000" stroke="none">
<path d="M12 2973 c4 -39 29 -43 26 -4 -1 18 -8 31 -16 31 -9 0 -12 -9 -10
-27z"/>
<path d="M973 2958 c-7 -24 -15 -128 -18 -233 -3 -104 -11 -230 -17 -280 -20
-173 -21 -383 -2 -460 9 -38 17 -109 18 -157 1 -95 -14 -130 -67 -156 l-27
-13 19 -37 c13 -26 22 -80 30 -176 7 -78 18 -151 26 -166 8 -15 17 -47 21 -71
4 -24 16 -54 27 -66 50 -55 83 -167 122 -413 7 -47 18 -98 24 -113 23 -61 -27
-86 -91 -47 -42 26 -69 25 -102 -1 -22 -17 -35 -20 -67 -15 -28 5 -46 2 -62
-9 -28 -20 -53 -19 -102 5 -22 11 -45 19 -52 20 -7 0 -17 9 -23 20 -6 11 -15
20 -20 20 -15 0 -12 -28 4 -37 8 -4 16 -17 18 -28 2 -15 -2 -19 -17 -17 -23 3
-30 3 -65 0 -25 -3 -25 -2 -22 59 4 57 2 63 -22 78 -19 12 -34 15 -58 9 -51
-13 -98 -5 -165 28 -76 37 -103 32 -103 -17 0 -19 5 -45 11 -59 9 -20 8 -31
-10 -63 -11 -21 -25 -50 -31 -65 -13 -37 -43 -36 -82 2 -16 17 -38 30 -49 30
-18 0 -19 -10 -19 -265 l0 -265 1500 0 1500 0 0 368 c0 355 -1 370 -20 387
-17 15 -22 16 -37 4 -30 -22 -43 -42 -43 -65 0 -53 -100 -72 -169 -33 -20 11
-48 38 -63 60 -43 60 -90 52 -104 -19 -6 -28 -4 -32 14 -32 37 0 54 -11 41
-26 -6 -8 -18 -14 -26 -14 -16 0 -83 62 -83 77 0 6 20 35 45 65 44 54 45 57
45 126 0 92 5 102 46 102 43 0 54 20 42 76 -11 49 2 84 31 84 21 0 31 19 31
60 0 45 -10 60 -39 60 -23 0 -28 6 -40 48 -7 26 -23 67 -35 92 -15 33 -20 61
-19 107 2 46 -4 77 -22 122 -14 33 -25 70 -25 82 0 13 -13 46 -30 76 -17 29
-30 59 -30 66 0 8 -13 27 -30 43 -20 20 -30 39 -30 61 0 17 -5 35 -11 38 -5 4
-21 30 -34 58 -14 29 -41 81 -60 117 -40 75 -43 105 -15 186 43 122 57 181 59
244 1 36 9 84 18 107 14 39 14 46 -1 83 -9 22 -16 56 -16 76 0 19 -5 45 -11
57 -14 27 -49 61 -49 48 0 -5 -29 -13 -65 -16 -66 -7 -115 -33 -115 -60 0 -15
-56 -65 -72 -65 -6 0 -26 -11 -44 -25 -18 -14 -36 -25 -39 -25 -4 0 -30 -18
-58 -41 -41 -32 -57 -39 -77 -34 -14 4 -57 10 -96 13 -39 4 -78 13 -88 21 -11
9 -30 12 -59 8 -33 -5 -50 -1 -82 19 -22 13 -49 24 -61 24 -36 0 -107 64 -143
129 l-35 61 -156 0 -156 0 -11 -42z m-663 -2394 c15 -39 12 -81 -6 -88 -37
-14 -44 -7 -44 42 0 68 31 97 50 46z m100 -30 c0 -24 -4 -34 -12 -32 -15 5
-22 42 -14 64 10 25 26 5 26 -32z"/>
<path d="M0 2454 l1 -49 19 24 c25 29 25 34 0 56 -20 18 -20 17 -20 -31z"/>
<path d="M400 2457 c0 -33 41 -91 68 -95 27 -4 28 10 4 46 -10 15 -23 36 -28
47 -17 30 -44 32 -44 2z"/>
<path d="M557 2383 c-26 -25 21 -74 57 -60 19 7 21 38 4 55 -13 13 -50 16 -61
5z"/>
<path d="M348 2278 c0 -13 0 -33 1 -46 1 -12 -3 -40 -9 -61 -13 -48 -4 -73 24
-69 18 3 21 9 18 50 -2 25 2 49 8 53 14 9 13 68 -2 83 -19 19 -38 14 -40 -10z"/>
<path d="M2414 2246 c-4 -10 -2 -22 4 -28 8 -8 13 -7 18 6 4 10 2 22 -4 28 -8
8 -13 7 -18 -6z"/>
<path d="M0 2084 c0 -51 14 -84 35 -84 21 0 20 78 -1 108 -23 34 -34 27 -34
-24z"/>
<path d="M2506 2074 c-9 -8 -16 -26 -16 -38 0 -31 36 -76 61 -76 28 0 27 78
-1 108 -25 26 -24 26 -44 6z"/>
<path d="M2636 1858 c22 -71 84 -102 84 -43 0 27 -42 65 -72 65 -16 0 -18 -4
-12 -22z"/>
<path d="M380 1706 c0 -9 5 -16 10 -16 6 0 10 4 10 9 0 6 -4 13 -10 16 -5 3
-10 -1 -10 -9z"/>
<path d="M145 1691 c-3 -5 -1 -12 5 -16 12 -7 30 2 30 16 0 12 -27 12 -35 0z"/>
<path d="M514 1655 c-22 -34 -14 -113 20 -185 14 -30 27 -66 30 -80 4 -20 15
-28 45 -36 22 -6 45 -8 51 -4 17 11 -25 89 -66 123 -43 36 -44 69 -4 107 37
34 32 54 -21 80 l-38 20 -17 -25z"/>
<path d="M2734 1545 c-4 -15 3 -54 17 -98 28 -83 42 -94 142 -105 l62 -7 -3
-36 c-3 -35 16 -69 39 -69 15 0 11 117 -5 123 -7 3 -16 20 -20 37 -6 32 -7 32
-50 26 -40 -6 -46 -4 -59 16 -8 13 -17 39 -21 58 -13 69 -88 110 -102 55z"/>
<path d="M160 1471 c0 -37 22 -57 40 -36 10 12 10 21 2 40 -16 35 -42 32 -42
-4z"/>
<path d="M7 1423 c-4 -3 -7 -21 -7 -40 0 -27 4 -33 20 -33 25 0 34 21 26 55
-6 24 -25 33 -39 18z"/>
<path d="M54 1316 c-3 -8 -4 -25 -2 -38 2 -17 9 -23 28 -23 31 0 39 29 14 56
-20 23 -33 24 -40 5z"/>
<path d="M754 1322 c-6 -4 -14 -37 -18 -73 -5 -57 -4 -69 14 -92 11 -14 33
-27 48 -29 25 -3 27 -7 33 -58 12 -107 29 -125 79 -84 16 14 30 29 30 34 0 4
-13 24 -30 45 -19 24 -30 49 -30 70 0 18 -9 44 -20 58 -12 14 -27 47 -35 73
-17 58 -41 76 -71 56z"/>
<path d="M387 1253 c-11 -10 -8 -43 3 -43 6 0 10 11 10 25 0 26 -2 29 -13 18z"/>
<path d="M80 1087 c0 -19 43 -57 63 -57 24 0 21 12 -11 43 -30 29 -52 35 -52
14z"/>
<path d="M2786 1092 c-3 -6 -1 -14 5 -17 15 -10 25 3 12 16 -7 7 -13 7 -17 1z"/>
<path d="M597 1044 c-14 -15 -6 -31 44 -83 49 -52 51 -55 47 -105 -3 -51 -3
-51 27 -51 28 0 30 3 37 50 3 28 10 62 13 77 8 32 -11 69 -48 92 -26 17 -109
31 -120 20z"/>
<path d="M2987 1030 c3 -11 7 -20 9 -20 2 0 4 9 4 20 0 11 -4 20 -9 20 -5 0
-7 -9 -4 -20z"/>
<path d="M2763 983 c-7 -2 -13 -13 -13 -23 0 -21 15 -35 50 -45 14 -4 37 -19
52 -32 35 -33 58 -25 58 21 0 19 -4 46 -10 60 -9 24 -14 26 -67 25 -32 0 -64
-3 -70 -6z"/>
<path d="M493 914 c-9 -24 5 -114 22 -140 20 -31 60 -32 69 -1 14 53 6 100
-21 129 -30 31 -60 36 -70 12z"/>
<path d="M885 851 c23 -66 34 -81 60 -81 22 0 25 5 25 33 0 43 -11 57 -56 73
-22 8 -40 14 -41 14 -1 0 4 -18 12 -39z"/>
<path d="M132 855 c-19 -16 -36 -23 -47 -18 -12 4 -23 0 -31 -12 -20 -28 -17
-44 10 -55 14 -5 26 -19 28 -32 4 -30 39 -31 52 -2 5 12 29 33 53 48 48 31 55
57 21 80 -31 22 -52 20 -86 -9z"/>
<path d="M354 858 c-8 -13 33 -51 50 -45 17 6 20 38 4 48 -19 12 -46 11 -54
-3z"/>
<path d="M275 800 c-4 -6 -3 -16 3 -22 6 -6 12 -6 17 2 4 6 3 16 -3 22 -6 6
-12 6 -17 -2z"/>
<path d="M2796 773 c-8 -19 8 -38 23 -29 16 10 13 46 -3 46 -8 0 -17 -8 -20
-17z"/>
<path d="M0 692 c0 -62 17 -92 54 -92 14 0 15 3 6 21 -7 11 -10 44 -8 72 3 50
2 52 -24 55 -28 3 -28 3 -28 -56z"/>
<path d="M826 741 c-6 -8 7 -94 20 -133 3 -10 14 -18 25 -18 17 0 19 8 19 74
0 58 -3 75 -16 80 -22 9 -42 7 -48 -3z"/>
<path d="M687 703 c-13 -12 -7 -62 9 -78 22 -22 88 -17 92 8 7 36 -77 95 -101
70z"/>
</g>
</svg>
